<mxfile host="app.diagrams.net" modified="2023-09-19T03:12:20.959Z" agent="Mozilla/5.0 (Windows NT 10.0; Win64; x64) AppleWebKit/537.36 (KHTML, like Gecko) Chrome/92.0.4515.131 Safari/537.36 Edg/92.0.902.67" version="21.7.5" etag="mypaHDBcxFB69cxoBoKU" type="github">
  <diagram name="Page-1" id="QwPey8SZHj_jC_uRo-JR">
    <mxGraphModel>
      <root>
        <mxCell id="0" />
        <mxCell id="1" parent="0" />
      </root>
    </mxGraphModel>
  </diagram>
</mxfile>
